<svg width="24" height="22" viewBox="0 0 24 22" fill="none" xmlns="http://www.w3.org/2000/svg">
<path d="M21.6188 13.7186C20.5594 15.0029 15.9 18.8467 13.4766 20.8154C12.6141 21.5186 11.3813 21.5186 10.5188 20.8154C8.09531 18.8467 3.44063 15.0029 2.37656 13.7186C0.754688 11.7639 0 9.90293 0 7.87793C0 5.8998 0.675 4.08105 1.90313 2.7498C3.15 1.40449 4.85156 0.65918 6.70313 0.65918C8.09063 0.65918 9.35625 1.0998 10.4719 1.9623C11.0531 2.41699 11.5688 2.95137 11.9953 3.55605C12.4266 2.95605 12.9375 2.41699 13.5188 1.9623C14.6344 1.09512 15.9047 0.65918 17.2922 0.65918C19.1484 0.65918 20.85 1.40449 22.0922 2.7498C23.3156 4.08105 23.9953 5.89512 23.9953 7.87793C24 9.90293 23.2453 11.7639 21.6188 13.7186Z" fill="black"/>
</svg>
