<svg width="25" height="24" viewBox="0 0 25 24" fill="none" xmlns="http://www.w3.org/2000/svg">
<path d="M12.5 10.5214C12.09 10.5214 11.75 10.1814 11.75 9.77141V6.44141C11.75 6.03141 12.09 5.69141 12.5 5.69141C12.91 5.69141 13.25 6.03141 13.25 6.44141V9.77141C13.25 10.1914 12.91 10.5214 12.5 10.5214Z" fill="#061023"/>
<path d="M12.5208 20.3483C9.94084 20.3483 7.37084 19.9383 4.92084 19.1183C4.01084 18.8183 3.32084 18.1683 3.02084 17.3483C2.72084 16.5283 2.82084 15.5883 3.31084 14.7683L4.58084 12.6483C4.86084 12.1783 5.11084 11.2983 5.11084 10.7483V8.64828C5.11084 4.55828 8.43084 1.23828 12.5208 1.23828C16.6108 1.23828 19.9308 4.55828 19.9308 8.64828V10.7483C19.9308 11.2883 20.1808 12.1783 20.4608 12.6483L21.7308 14.7683C22.2008 15.5483 22.2808 16.4783 21.9708 17.3283C21.6608 18.1783 20.9808 18.8283 20.1208 19.1183C17.6708 19.9483 15.1008 20.3483 12.5208 20.3483ZM12.5208 2.74828C9.26084 2.74828 6.61084 5.39828 6.61084 8.65828V10.7583C6.61084 11.5683 6.29084 12.7383 5.87084 13.4283L4.60084 15.5583C4.34084 15.9883 4.28084 16.4483 4.43084 16.8483C4.58084 17.2483 4.92084 17.5483 5.40084 17.7083C10.0008 19.2383 15.0608 19.2383 19.6608 17.7083C20.0908 17.5683 20.4208 17.2483 20.5708 16.8283C20.7308 16.4083 20.6808 15.9483 20.4508 15.5583L19.1808 13.4383C18.7608 12.7483 18.4408 11.5783 18.4408 10.7683V8.66828C18.4308 5.39828 15.7808 2.74828 12.5208 2.74828Z" fill="#061023"/>
<path d="M12.4999 22.9003C11.4299 22.9003 10.3799 22.4603 9.61992 21.7003C8.85992 20.9403 8.41992 19.8903 8.41992 18.8203H9.91992C9.91992 19.5003 10.1999 20.1603 10.6799 20.6403C11.1599 21.1203 11.8199 21.4003 12.4999 21.4003C13.9199 21.4003 15.0799 20.2403 15.0799 18.8203H16.5799C16.5799 21.0703 14.7499 22.9003 12.4999 22.9003Z" fill="#061023"/>
</svg>
