<svg width="24" height="24" viewBox="0 0 24 24" fill="none" xmlns="http://www.w3.org/2000/svg">
<path d="M12 0.000488281C5.37328 0.000488281 0 5.37271 0 12C0 18.6272 5.37275 23.9994 12 23.9994C18.6278 23.9994 24 18.6272 24 12C24 5.37271 18.6278 0.000488281 12 0.000488281ZM12 3.58847C13.0527 3.5884 14.0622 4.0065 14.8066 4.7508C15.551 5.4951 15.9693 6.50462 15.9693 7.55728C15.9694 8.60995 15.5513 9.61952 14.807 10.3639C14.0627 11.1083 13.0532 11.5266 12.0005 11.5266C10.9479 11.5267 9.93828 11.1086 9.19389 10.3643C8.44949 9.62 8.03126 8.61047 8.03119 7.55781C8.03112 6.50515 8.44922 5.49557 9.19352 4.75117C9.93781 4.00678 10.9473 3.58854 12 3.58847ZM11.9974 20.8621C9.89458 20.8645 7.86035 20.1143 6.2625 18.7474C6.07655 18.5887 5.9272 18.3916 5.82474 18.1697C5.72228 17.9477 5.66914 17.7062 5.66898 17.4618C5.66898 15.239 7.46798 13.46 9.69129 13.46H14.3098C16.5336 13.46 18.3257 15.239 18.3257 17.4618C18.3259 17.7062 18.2729 17.9476 18.1706 18.1695C18.0682 18.3914 17.9188 18.5884 17.7328 18.7469C16.135 20.1144 14.1004 20.8647 11.9974 20.8621Z" fill="black"/>
</svg>
