<svg width="25" height="24" viewBox="0 0 25 24" fill="none" xmlns="http://www.w3.org/2000/svg">
<path d="M12.2172 10.87C12.1172 10.86 11.9972 10.86 11.8872 10.87C9.50719 10.79 7.61719 8.84 7.61719 6.44C7.61719 3.99 9.59719 2 12.0572 2C14.5072 2 16.4972 3.99 16.4972 6.44C16.4872 8.84 14.5972 10.79 12.2172 10.87Z" stroke="#061023" stroke-width="1.5" stroke-linecap="round" stroke-linejoin="round"/>
<path d="M7.21637 14.56C4.79637 16.18 4.79637 18.82 7.21637 20.43C9.96637 22.27 14.4764 22.27 17.2264 20.43C19.6464 18.81 19.6464 16.17 17.2264 14.56C14.4864 12.73 9.97637 12.73 7.21637 14.56Z" stroke="#061023" stroke-width="1.5" stroke-linecap="round" stroke-linejoin="round"/>
</svg>
